<svg fill="#2FC6F6" viewBox="0 0 24 24" xmlns="http://www.w3.org/2000/svg"><title>Bitrix24</title><path d="M12 0C5.373 0 0 5.373 0 12s5.373 12 12 12 12-5.373 12-12S18.627 0 12 0zm1.334 9.312c0 3.144-4.32 3.768-3.624 6.576h5.136v1.704H3.696c.456-5.592 5.496-4.992 5.448-7.384 0-.672-.432-.96-1.008-.96-.696 0-1.296.384-1.728.768l-.552-1.608c.648-.456 1.584-.888 2.76-.888 2.4 0 3.576 1.224 3.576 2.928l-.024-.024-.84-.048.012.048v-.112zm5.328 8.28h-1.968v-2.712H18.6v-1.224h-1.896v-6.816h-1.176L11.688 13.8v1.08h4.92v2.712h1.968l.024-.048.012.048h.048l.002-.048z"/></svg>