<svg xmlns="http://www.w3.org/2000/svg" viewBox="28 28 75 70">
    <title>UniSender</title>
    <path fill="#FCB43D" d="M93.1,54.9c-0.4-2.8-2-10.7-8.3-14c-4.2-2.2-11.2-4.6-20.6-2.5c-6.5,1.5-8.5,3.6-10.4,6.1 c-2.2,2.8-2.1,6.6-2.5,11.4c-0.1,0.8-0.7,1.3-1.5,1.3c-3.9-0.1-8.2-0.5-12.3-0.8c-0.8-0.1-1.5,0.6-1.6,1.4 c-0.5,12.7,2.3,19.6,9.4,23.7c3.5,2,7.3,3.2,13.6,1.8c0.1,0.2,0.2,0.5,0.3,0.7c3.7,8.8,2.9,11.3,11.8,10.1 c1.6-0.2,3.1-0.6,4.5-1.2c7.2-2.9,15.4-10.1,15.5-17.9C91.1,65.7,94.1,61.8,93.1,54.9z"/>
    <path fill="#FFFFFF" d="M78.6,44.5C94,65.6,62.9,69.1,61.1,56.6C59.4,45,74.8,39.2,78.6,44.5z"/>
    <path fill="#131313" d="M79.2,50c-1.2-2.8-4.4-5.3-7.7-4.7c-0.8,0.1-0.7,1.3,0.1,1.2c2.7-0.5,5.4,1.6,6.4,4 C78.3,51.2,79.5,50.8,79.2,50z"/>
    <path fill="#131313" d="M63.3,77.4c-0.4,0.1-0.8,0.1-1,0.1c-0.9,0.1-1.6-0.5-1.7-1.4c-0.1-0.8,0.5-1.6,1.4-1.7 c0.8-0.1,8.1-0.9,10.4-5.2c0.4-0.8,1.3-1.1,2.1-0.7c0.8,0.4,1.1,1.3,0.7,2.1C72.6,75.5,66.1,77,63.3,77.4z"/>
    <path fill="#131313" d="M48.3,66.6c0.8-0.3,1.4-1.1,1.1-1.8c-0.2-0.8-1.1-1.2-1.9-0.9c-0.8,0.3-1.4,1.1-1.1,1.8 C46.6,66.4,47.4,66.9,48.3,66.6z"/>
    <path fill="#131313" d="M48.2,69.7c0.6-0.2,0.9-0.7,0.8-1.3c-0.2-0.5-0.7-0.8-1.3-0.6c-0.6,0.2-0.9,0.7-0.8,1.3 C47,69.6,47.6,69.9,48.2,69.7z"/>
    <path fill="#131313" d="M51.9,68.4c0.6-0.2,0.9-0.7,0.8-1.3c-0.2-0.5-0.7-0.8-1.3-0.6c-0.6,0.2-0.9,0.7-0.8,1.3 C50.7,68.2,51.3,68.5,51.9,68.4z"/>
    <path fill="#131313" d="M74.9,56.1c0.4-2.6-0.6-4.9-2.3-5.2c-1.7-0.3-3.4,1.6-3.8,4.2c-0.4,2.6,0.6,4.9,2.3,5.2 C72.8,60.6,74.5,58.7,74.9,56.1z"/>
    <path fill="#131313" d="M59.5,55.7c0.5-1.9-0.1-3.6-1.3-4c-1.2-0.3-2.7,0.9-3.2,2.7c-0.5,1.9,0.1,3.6,1.3,4 C57.6,58.8,59,57.5,59.5,55.7z"/>
    <path fill="#FFFFFF" d="M72.4,55.6c0,0.9,0.8,1.7,1.7,1.7c0.2,0,0.4,0,0.6-0.1c0.1-0.3,0.2-0.7,0.3-1.1c0.1-0.7,0.1-1.3,0-1.9 C74.7,54,74.4,54,74.1,54C73.2,54,72.4,54.7,72.4,55.6z"/>
    <path fill="#FFFFFF" d="M58.6,54c-0.8,0-1.4,0.6-1.4,1.4c0,0.8,0.6,1.4,1.4,1.4c0.2,0,0.4,0,0.6-0.1c0.1-0.3,0.2-0.6,0.3-0.9 c0.1-0.4,0.2-0.8,0.2-1.2C59.5,54.2,59.1,54,58.6,54z"/>
    <path fill="#131313" d="M100.8,38.9c-4.5-6.7-14.8-3.8-25.1-7.5c-0.7,2-0.7,3.8-0.2,5.4c-1.2-0.2-2.5-0.3-3.9-0.3 c-1.2,0-2.4,0.1-3.6,0.2c0-0.1,0-0.2-0.1-0.3c-1.3-5.3-18.1-0.1-22.7-2.9c0.4,5.6,3.7,8.8,6.9,12.8c-0.9,2.5-0.9,5.6-1.2,9.2 c-0.1,0.8-0.7,1.4-1.5,1.3l0,0c-1.6,0-3.3-0.1-5.1-0.2C42.7,53,30.1,50.8,31.5,59c0.7,3.9,2.1,6.8,3.9,8.4 c1.1,7.1,4,11.5,9.3,14.6c2.4,1.4,5.5,2.2,9.2,2.2c1.9,0,2.7,0.1,4.9-0.4c0.1,0.2,0.3,0.5,0.4,0.7c3.3,7.7,1.8,10.7,8.6,10.7 c1.2,0,2.5-0.1,3.8-0.3c1.6-0.2,3.2-0.7,4.7-1.3c7.4-3,17.6-10.2,17.7-18.2c0.1-8.9,1.2-13.3,0.4-19.7c4.5-3.2,6.5-9.5,7.3-12.7 C101.9,41.6,101.6,40.1,100.8,38.9z M90.7,75.4c-0.1,7-9.5,12.8-15.7,15.4c-1.3,0.5-2.6,0.9-3.9,1.1c-1.2,0.2-2.4,0.3-3.4,0.3 c-4.6,0-2.5-1.2-5.7-8.8l0,0l0,0c-0.1-0.2-0.2-0.4-0.3-0.6c0-0.1-0.1-0.1-0.1-0.2l-1-2.2l-2.4,0.5c-1.9,0.4-2.5,0.3-4.3,0.3 c-2.9,0-5.6-0.6-7.7-1.8c-3.4-2-5.7-4.7-6.9-8.6c-0.3-1,0-2.2,0.8-2.8c1.3-1,2.5-2.9,3.4-6.1c0.3-1.2,1.5-2,2.7-1.9 c1,0.1,2,0.1,3,0.1l0.1,0h0c2.4,0,4.3-1.8,4.6-4.2c0.1-0.8,0.1-1.6,0.2-2.3c0.2-2,0.3-3.7,0.6-5.2c1.2-1.6,3.2-2.6,5.1-2.6 c0.8,0,0.8-1.3,0-1.2c-1.3,0-2.7,0.5-3.9,1.2c1.5-1.9,3-3.7,9-5.1c2.3-0.5,4.5-0.8,6.7-0.8c2.1,0,4.1,0.2,6,0.7 c4.1,4.8,11.9,8.7,13.6,16.3C91.8,62.4,90.8,66.6,90.7,75.4z"/>
    <path fill="#FFFFFF" d="M35.9,57c0.8-0.3,1.4-1.1,1.1-1.8c-0.2-0.8-1.1-1.2-1.9-0.9c-0.8,0.3-1.4,1.1-1.1,1.8 C34.2,56.8,35,57.2,35.9,57z"/>
</svg>